<?xml version="1.0" encoding="UTF-8" standalone="no"?>
<!-- Created with Inkscape (http://www.inkscape.org/) -->

<svg
   version="1.1"
   id="svg136631"
   width="800"
   height="800"
   viewBox="0 0 800 800"
   sodipodi:docname="paper-flower-pdv.svg"
   inkscape:version="1.2 (dc2aedaf03, 2022-05-15)"
   xmlns:inkscape="http://www.inkscape.org/namespaces/inkscape"
   xmlns:sodipodi="http://sodipodi.sourceforge.net/DTD/sodipodi-0.dtd"
   xmlns="http://www.w3.org/2000/svg"
   xmlns:svg="http://www.w3.org/2000/svg">
  <defs
     id="defs136635">
    <clipPath
       clipPathUnits="userSpaceOnUse"
       id="clipPath136647">
      <path
         d="M 0,600 H 600 V 0 H 0 Z"
         id="path136645" />
    </clipPath>
  </defs>
  <sodipodi:namedview
     id="namedview136633"
     pagecolor="#ffffff"
     bordercolor="#000000"
     borderopacity="0.25"
     inkscape:showpageshadow="2"
     inkscape:pageopacity="0.0"
     inkscape:pagecheckerboard="0"
     inkscape:deskcolor="#d1d1d1"
     showgrid="false"
     inkscape:zoom="1.04625"
     inkscape:cx="400"
     inkscape:cy="400.4779"
     inkscape:window-width="1920"
     inkscape:window-height="1017"
     inkscape:window-x="-8"
     inkscape:window-y="-8"
     inkscape:window-maximized="1"
     inkscape:current-layer="g136639">
    <inkscape:page
       x="0"
       y="0"
       id="page136637"
       width="800"
       height="800" />
  </sodipodi:namedview>
  <g
     id="g136639"
     inkscape:groupmode="layer"
     inkscape:label="Page 1"
     transform="matrix(1.3333333,0,0,-1.3333333,0,800)">
    <g
       id="g136641">
      <g
         id="g136643"
         clip-path="url(#clipPath136647)">
        <g
           id="g136649"
           transform="translate(278.0366,344.8423)">
          <path
             d="M 0,0 C -29.752,83.815 -31.546,164.117 -12.604,241.865 13.154,158.389 20.069,77.408 0,0"
             style="fill:#ff6666;fill-opacity:1;fill-rule:evenodd;stroke:none"
             id="path136651" />
        </g>
        <g
           id="g136653"
           transform="translate(243.7642,325.6421)">
          <path
             d="M 0,0 C -63.606,39.784 -102.345,99.918 -124.417,173.685 -65.932,124.439 -22.681,67.449 0,0"
             style="fill:#cc3366;fill-opacity:1;fill-rule:evenodd;stroke:none"
             id="path136655" />
        </g>
        <g
           id="g136657"
           transform="translate(351.3496,348.7095)">
          <path
             d="M 0,0 C 19.736,67.174 50.181,127.54 114.946,166.092 100.638,98.101 55.866,46.134 0,0"
             style="fill:#cc3399;fill-opacity:1;fill-rule:evenodd;stroke:none"
             id="path136659" />
        </g>
        <g
           id="g136661"
           transform="translate(364.9326,287.6445)">
          <path
             d="M 0,0 C 18.776,-47.794 50.715,-87.012 106.733,-110.531 88.072,-62.085 48.745,-27.811 0,0"
             style="fill:#cc3399;fill-opacity:1;fill-rule:evenodd;stroke:none"
             id="path136663" />
        </g>
        <g
           id="g136665"
           transform="translate(287.5962,267.0889)">
          <path
             d="M 0,0 C 17.074,-62.103 7.67,-116.468 -16.794,-166.435 -29.294,-110.388 -26.168,-54.831 0,0"
             style="fill:#cc3366;fill-opacity:1;fill-rule:evenodd;stroke:none"
             id="path136667" />
        </g>
        <g
           id="g136669"
           transform="translate(234.3403,282.9912)">
          <path
             d="M 0,0 C -32.402,-52.814 -73.996,-98.273 -132.18,-130.452 -108.281,-72.324 -64.001,-29.001 0,0"
             style="fill:#cc3399;fill-opacity:1;fill-rule:evenodd;stroke:none"
             id="path136671" />
        </g>
        <g
           id="g136673"
           transform="translate(301.457,315.2144)">
          <path
             d="M 0,0 C 5.922,-136.919 -122.103,-108.396 -191.692,-62.285 -162.496,15.921 -75.69,114.251 0,0"
             style="fill:#9ab3e6;fill-opacity:1;fill-rule:evenodd;stroke:none"
             id="path136675" />
        </g>
        <g
           id="g136677"
           transform="translate(301.457,315.2144)">
          <path
             d="m 0,0 c 4.395,-101.613 -64.98,-112.095 -129.495,-91.903 -0.156,17.132 1.801,34.183 6.572,49.397 -13.845,10.276 -26.294,24.23 -36.754,39.539 C -119.383,52.013 -56.584,85.415 0,0"
             style="fill:#91aade;fill-opacity:1;fill-rule:evenodd;stroke:none"
             id="path136679" />
        </g>
        <g
           id="g136681"
           transform="translate(301.457,315.2144)">
          <path
             d="m 0,0 c 0.16,-3.723 0.207,-7.3 0.172,-10.779 -34.414,-12.217 -74.462,-16.652 -103.744,9.616 -10.042,9.007 -17.477,20.455 -22.797,33.336 C -88.933,61.247 -42.7,64.453 0,0"
             style="fill:#91aade;fill-opacity:1;fill-rule:evenodd;stroke:none"
             id="path136683" />
        </g>
        <g
           id="g136685"
           transform="translate(301.457,315.2144)">
          <path
             d="M 0,0 C 5.922,-136.919 -122.103,-108.396 -191.692,-62.285 Z"
             style="fill:#aac2f0;fill-opacity:1;fill-rule:evenodd;stroke:none"
             id="path136687" />
        </g>
        <g
           id="g136689"
           transform="translate(301.457,315.2144)">
          <path
             d="m 0,0 c 4.395,-101.613 -64.98,-112.095 -129.495,-91.903 -0.156,17.132 1.801,34.183 6.572,49.397 -0.792,0.587 -1.578,1.188 -2.361,1.798 z"
             style="fill:#a2baeb;fill-opacity:1;fill-rule:evenodd;stroke:none"
             id="path136691" />
        </g>
        <g
           id="g136693"
           transform="translate(301.457,315.2144)">
          <path
             d="m 0,0 c 3.336,-77.126 -35.83,-101.754 -83.11,-100.317 -3.241,13.367 -4.051,27.024 -1.194,40.342 3.574,16.657 12.18,29.836 23.632,40.263 z"
             style="fill:#a2baeb;fill-opacity:1;fill-rule:evenodd;stroke:none"
             id="path136695" />
        </g>
        <g
           id="g136697"
           transform="translate(301.457,315.2144)">
          <path
             d="M 0,0 C -128.39,-47.944 -140.822,82.632 -118.47,163.062 -35.071,159.465 85.27,107.29 0,0"
             style="fill:#9ab3e6;fill-opacity:1;fill-rule:evenodd;stroke:none"
             id="path136699" />
        </g>
        <g
           id="g136701"
           transform="translate(301.457,315.2144)">
          <path
             d="m 0,0 c -89.274,-33.337 -122.474,19.642 -126.908,82.055 15.132,4.92 31.354,8.266 47.194,8.42 6.867,20.42 19.863,40.536 35.042,57.857 C 16.387,125.726 61.269,77.09 0,0"
             style="fill:#91aade;fill-opacity:1;fill-rule:evenodd;stroke:none"
             id="path136703" />
        </g>
        <g
           id="g136705"
           transform="translate(301.457,315.2144)">
          <path
             d="m 0,0 c -3.26,-1.219 -6.427,-2.291 -9.539,-3.282 -22.117,28.724 -38.795,65.456 -22.977,101.163 5.445,12.292 14.026,22.863 24.621,31.867 C 30.933,103.101 47.875,60.24 0,0"
             style="fill:#91aade;fill-opacity:1;fill-rule:evenodd;stroke:none"
             id="path136707" />
        </g>
        <g
           id="g136709"
           transform="translate(301.457,315.2144)">
          <path
             d="M 0,0 C -128.39,-47.944 -140.822,82.632 -118.47,163.062 Z"
             style="fill:#aac2f0;fill-opacity:1;fill-rule:evenodd;stroke:none"
             id="path136711" />
        </g>
        <g
           id="g136713"
           transform="translate(301.457,315.2144)">
          <path
             d="m 0,0 c -89.274,-33.337 -122.474,19.642 -126.908,82.055 15.132,4.92 31.354,8.266 47.194,8.42 1.4,4.168 3.059,8.323 4.936,12.446 z"
             style="fill:#a2baeb;fill-opacity:1;fill-rule:evenodd;stroke:none"
             id="path136715" />
        </g>
        <g
           id="g136717"
           transform="translate(301.457,315.2144)">
          <path
             d="M 0,0 C -3.26,-1.219 -6.427,-2.291 -9.539,-3.282 -21.854,12.71 -32.476,31.184 -36.749,50.579 Z"
             style="fill:#a2baeb;fill-opacity:1;fill-rule:evenodd;stroke:none"
             id="path136719" />
        </g>
        <g
           id="g136721"
           transform="translate(301.457,315.2144)">
          <path
             d="M 0,0 C -85.271,107.29 35.072,159.465 118.473,163.063 140.822,82.632 128.391,-47.942 0,0"
             style="fill:#9ab3e6;fill-opacity:1;fill-rule:evenodd;stroke:none"
             id="path136723" />
        </g>
        <g
           id="g136725"
           transform="translate(301.457,315.2144)">
          <path
             d="m 0,0 c -56.292,70.827 -22.972,117.627 30.167,142.297 12.96,-15.879 23.855,-33.733 29.939,-51.822 19.193,-0.187 38.947,-5.058 56.643,-11.739 3.189,-1.206 6.365,-2.487 9.521,-3.843 C 119.836,15.69 85.837,-32.052 0,0"
             style="fill:#91aade;fill-opacity:1;fill-rule:evenodd;stroke:none"
             id="path136727" />
        </g>
        <g
           id="g136729"
           transform="translate(301.457,315.2144)">
          <path
             d="M 0,0 C -2.121,2.669 -4.077,5.292 -5.948,7.894 14.532,37.829 44.123,64.992 83.022,60.978 96.381,59.601 109.073,54.705 120.9,47.411 107.511,2.359 71.984,-26.88 0,0"
             style="fill:#91aade;fill-opacity:1;fill-rule:evenodd;stroke:none"
             id="path136731" />
        </g>
        <g
           id="g136733"
           transform="translate(301.457,315.2144)">
          <path
             d="M 0,0 C -85.271,107.29 35.072,159.465 118.473,163.063 Z"
             style="fill:#aac2f0;fill-opacity:1;fill-rule:evenodd;stroke:none"
             id="path136735" />
        </g>
        <g
           id="g136737"
           transform="translate(301.457,315.2144)">
          <path
             d="m 0,0 c -56.292,70.827 -22.972,117.627 30.167,142.297 12.96,-15.879 23.855,-33.733 29.939,-51.822 1.829,-0.018 3.663,-0.079 5.498,-0.178 z"
             style="fill:#a2baeb;fill-opacity:1;fill-rule:evenodd;stroke:none"
             id="path136739" />
        </g>
        <g
           id="g136741"
           transform="translate(301.457,315.2144)">
          <path
             d="M 0,0 C -2.121,2.669 -4.077,5.292 -5.948,7.894 5.399,24.479 19.546,40.212 36.52,50.265 Z"
             style="fill:#a2baeb;fill-opacity:1;fill-rule:evenodd;stroke:none"
             id="path136743" />
        </g>
        <g
           id="g136745"
           transform="translate(301.457,315.2144)">
          <path
             d="M 0,0 C 132.05,-36.681 65.358,-149.623 0,-201.556 -65.358,-149.623 -132.049,-36.681 0,0"
             style="fill:#9ab3e6;fill-opacity:1;fill-rule:evenodd;stroke:none"
             id="path136747" />
        </g>
        <g
           id="g136749"
           transform="translate(301.457,315.2144)">
          <path
             d="m 0,0 c 97.046,-26.958 86.75,-95.102 48.531,-149.951 -21.088,5.184 -41.824,13.52 -58.332,25.254 -12.186,-8.664 -26.679,-15.474 -41.916,-20.533 C -87.241,-91.252 -94.28,-26.188 0,0"
             style="fill:#91aade;fill-opacity:1;fill-rule:evenodd;stroke:none"
             id="path136751" />
        </g>
        <g
           id="g136753"
           transform="translate(301.457,315.2144)">
          <path
             d="m 0,0 c 74.018,-20.561 85.584,-65.081 69.954,-109.385 -13.682,1.02 -26.887,4.444 -38.63,11.254 -33.791,19.592 -41.8,59.016 -40.776,95.24 C -6.41,-1.883 -3.284,-0.911 0,0"
             style="fill:#91aade;fill-opacity:1;fill-rule:evenodd;stroke:none"
             id="path136755" />
        </g>
        <g
           id="g136757"
           transform="translate(301.457,315.2144)">
          <path
             d="M 0,0 C 132.05,-36.681 65.358,-149.623 0,-201.556 Z"
             style="fill:#aac2f0;fill-opacity:1;fill-rule:evenodd;stroke:none"
             id="path136759" />
        </g>
        <g
           id="g136761"
           transform="translate(301.457,315.2144)">
          <path
             d="M 0,0 C 97.046,-26.958 86.75,-95.102 48.531,-149.951 31.435,-145.746 14.568,-139.472 0,-130.994 Z"
             style="fill:#a2baeb;fill-opacity:1;fill-rule:evenodd;stroke:none"
             id="path136763" />
        </g>
        <g
           id="g136765"
           transform="translate(301.457,315.2144)">
          <path
             d="m 0,0 c 74.018,-20.561 85.584,-65.081 69.954,-109.385 -13.682,1.02 -26.887,4.444 -38.63,11.254 C 16.242,-89.387 6.3,-76.689 0,-62.091 Z"
             style="fill:#a2baeb;fill-opacity:1;fill-rule:evenodd;stroke:none"
             id="path136767" />
        </g>
        <g
           id="g136769"
           transform="translate(301.457,315.2144)">
          <path
             d="M 0,0 C 75.69,114.251 162.497,15.923 191.692,-62.285 122.105,-108.396 -5.919,-136.919 0,0"
             style="fill:#9ab3e6;fill-opacity:1;fill-rule:evenodd;stroke:none"
             id="path136771" />
        </g>
        <g
           id="g136773"
           transform="translate(301.457,315.2144)">
          <path
             d="m 0,0 c 51.688,78.02 108.555,56.9 148.723,10.759 -11.948,-20.557 -27.509,-39.988 -45.407,-53.271 5.246,-16.731 7.088,-35.688 6.46,-54.53 C 51.655,-109.025 -3.948,-91.294 0,0"
             style="fill:#91aade;fill-opacity:1;fill-rule:evenodd;stroke:none"
             id="path136775" />
        </g>
        <g
           id="g136777"
           transform="translate(301.457,315.2144)">
          <path
             d="M 0,0 C 75.69,114.251 162.497,15.923 191.692,-62.285 Z"
             style="fill:#aac2f0;fill-opacity:1;fill-rule:evenodd;stroke:none"
             id="path136779" />
        </g>
        <g
           id="g136781"
           transform="translate(301.457,315.2144)">
          <path
             d="M 0,0 C 51.688,78.02 108.555,56.9 148.723,10.759 138.567,-6.714 125.801,-23.372 111.208,-36.134 Z"
             style="fill:#a2baeb;fill-opacity:1;fill-rule:evenodd;stroke:none"
             id="path136783" />
        </g>
        <g
           id="g136785"
           transform="translate(291.6528,309.4624)">
          <path
             d="M 0,0 C -65.6,-99.02 -140.833,-13.8 -166.136,53.981 -105.825,93.943 5.131,118.666 0,0"
             style="fill:#9ab3e6;fill-opacity:1;fill-rule:evenodd;stroke:none"
             id="path136787" />
        </g>
        <g
           id="g136789"
           transform="translate(291.6528,309.4624)">
          <path
             d="m 0,0 c -1.783,-2.69 -3.575,-5.223 -5.371,-7.646 -30.352,8.965 -60.692,26.258 -67.844,59.592 -2.451,11.431 -1.832,23.245 1,34.987 C -31.156,88.249 2.895,66.943 0,0"
             style="fill:#91aade;fill-opacity:1;fill-rule:evenodd;stroke:none"
             id="path136791" />
        </g>
        <g
           id="g136793"
           transform="translate(291.6528,309.4624)">
          <path
             d="M 0,0 C -65.6,-99.02 -140.833,-13.8 -166.136,53.981 Z"
             style="fill:#aac2f0;fill-opacity:1;fill-rule:evenodd;stroke:none"
             id="path136795" />
        </g>
        <g
           id="g136797"
           transform="translate(291.6528,309.4624)">
          <path
             d="m 0,0 c -36.952,-55.776 -76.956,-53.094 -109.376,-28.001 4.535,11.026 10.925,21.012 19.714,28.896 10.991,9.859 23.738,14.715 37.079,16.191 z"
             style="fill:#a2baeb;fill-opacity:1;fill-rule:evenodd;stroke:none"
             id="path136799" />
        </g>
        <g
           id="g136801"
           transform="translate(291.6528,309.4624)">
          <path
             d="M 0,0 C -114.444,31.789 -56.645,129.675 0,174.683 56.644,129.675 114.444,31.789 0,0"
             style="fill:#9ab3e6;fill-opacity:1;fill-rule:evenodd;stroke:none"
             id="path136803" />
        </g>
        <g
           id="g136805"
           transform="translate(291.6528,309.4624)">
          <path
             d="m 0,0 c -2.907,0.808 -5.675,1.668 -8.36,2.56 -0.874,31.407 6.143,65.656 35.424,82.633 10.08,5.845 21.48,8.887 33.497,9.803 C 74.21,56.532 64.254,17.848 0,0"
             style="fill:#91aade;fill-opacity:1;fill-rule:evenodd;stroke:none"
             id="path136807" />
        </g>
        <g
           id="g136809"
           transform="translate(291.6528,309.4624)">
          <path
             d="M 0,0 C -114.444,31.789 -56.645,129.675 0,174.683 Z"
             style="fill:#aac2f0;fill-opacity:1;fill-rule:evenodd;stroke:none"
             id="path136811" />
        </g>
        <g
           id="g136813"
           transform="translate(291.6528,309.4624)">
          <path
             d="M 0,0 C -2.907,0.808 -5.675,1.668 -8.36,2.56 -8.847,20.044 -6.885,38.407 0,54.185 Z"
             style="fill:#a2baeb;fill-opacity:1;fill-rule:evenodd;stroke:none"
             id="path136815" />
        </g>
        <g
           id="g136817"
           transform="translate(291.6528,309.4624)">
          <path
             d="M 0,0 C -5.133,118.666 105.825,93.943 166.133,53.981 140.833,-13.8 65.599,-99.02 0,0"
             style="fill:#9ab3e6;fill-opacity:1;fill-rule:evenodd;stroke:none"
             id="path136819" />
        </g>
        <g
           id="g136821"
           transform="translate(291.6528,309.4624)">
          <path
             d="M 0,0 C -0.128,2.951 -0.165,5.788 -0.15,8.564 29.46,19.121 64.046,23.093 89.274,0.463 97.939,-7.31 104.346,-17.207 108.921,-28.345 76.583,-53.115 36.777,-55.517 0,0"
             style="fill:#91aade;fill-opacity:1;fill-rule:evenodd;stroke:none"
             id="path136823" />
        </g>
        <g
           id="g136825"
           transform="translate(291.6528,309.4624)">
          <path
             d="M 0,0 C -5.133,118.666 105.825,93.943 166.133,53.981 Z"
             style="fill:#aac2f0;fill-opacity:1;fill-rule:evenodd;stroke:none"
             id="path136827" />
        </g>
        <g
           id="g136829"
           transform="translate(291.6528,309.4624)">
          <path
             d="m 0,0 c -0.128,2.951 -0.165,5.788 -0.15,8.564 16.405,5.85 34.34,9.674 51.362,8.076 z"
             style="fill:#a2baeb;fill-opacity:1;fill-rule:evenodd;stroke:none"
             id="path136831" />
        </g>
        <g
           id="g136833"
           transform="translate(291.6528,309.4624)">
          <path
             d="M 0,0 C 73.902,-92.987 -30.396,-138.203 -102.677,-141.322 -122.048,-71.616 -111.272,41.551 0,0"
             style="fill:#9ab3e6;fill-opacity:1;fill-rule:evenodd;stroke:none"
             id="path136835" />
        </g>
        <g
           id="g136837"
           transform="translate(291.6528,309.4624)">
          <path
             d="m 0,0 c 41.424,-52.123 26.856,-89.229 -6.675,-112.333 -9.074,7.689 -16.588,16.815 -21.353,27.571 -13.71,30.951 0.758,62.672 19.929,87.55 C -5.455,1.945 -2.766,1.033 0,0"
             style="fill:#91aade;fill-opacity:1;fill-rule:evenodd;stroke:none"
             id="path136839" />
        </g>
        <g
           id="g136841"
           transform="translate(291.6528,309.4624)">
          <path
             d="M 0,0 C 73.902,-92.987 -30.396,-138.203 -102.677,-141.322 Z"
             style="fill:#aac2f0;fill-opacity:1;fill-rule:evenodd;stroke:none"
             id="path136843" />
        </g>
        <g
           id="g136845"
           transform="translate(291.6528,309.4624)">
          <path
             d="m 0,0 c 41.424,-52.123 26.856,-89.229 -6.675,-112.333 -9.074,7.689 -16.588,16.815 -21.353,27.571 -6.119,13.814 -6.623,27.781 -3.602,41.225 z"
             style="fill:#a2baeb;fill-opacity:1;fill-rule:evenodd;stroke:none"
             id="path136847" />
        </g>
        <g
           id="g136849"
           transform="translate(291.6528,309.4624)">
          <path
             d="M 0,0 C 111.273,41.551 122.047,-71.616 102.676,-141.322 30.396,-138.203 -73.901,-92.987 0,0"
             style="fill:#9ab3e6;fill-opacity:1;fill-rule:evenodd;stroke:none"
             id="path136851" />
        </g>
        <g
           id="g136853"
           transform="translate(291.6528,309.4624)">
          <path
             d="M 0,0 C 111.273,41.551 122.047,-71.616 102.676,-141.322 Z"
             style="fill:#aac2f0;fill-opacity:1;fill-rule:evenodd;stroke:none"
             id="path136855" />
        </g>
        <g
           id="g136857"
           transform="translate(292.1353,322.7124)">
          <path
             d="m 0,0 c 1.378,-0.075 2.699,-0.36 3.932,-0.825 l 6.964,15.381 c -1.481,1.098 -2.046,3.108 -1.256,4.853 0.908,2.011 3.274,2.902 5.283,1.993 2.011,-0.911 2.903,-3.276 1.994,-5.287 -0.791,-1.742 -2.677,-2.644 -4.476,-2.259 L 5.479,-1.528 c 0.941,-0.5 1.813,-1.114 2.599,-1.82 l 8.674,8.673 c -0.844,1.308 -0.692,3.071 0.454,4.217 1.319,1.32 3.459,1.32 4.779,0 1.32,-1.32 1.32,-3.462 0,-4.779 C 20.839,3.615 19.078,3.465 17.768,4.308 L 9.095,-4.363 c 0.895,-0.997 1.639,-2.13 2.199,-3.366 l 15.801,5.957 c -0.271,1.817 0.752,3.643 2.542,4.318 2.065,0.777 4.367,-0.267 5.146,-2.329 0.777,-2.064 -0.265,-4.367 -2.329,-5.146 -1.792,-0.675 -3.763,0.022 -4.761,1.567 L 11.892,-9.316 c 0.303,-0.999 0.492,-2.046 0.551,-3.128 h 12.264 c 0.329,1.521 1.682,2.661 3.302,2.661 1.867,0 3.38,-1.513 3.38,-3.38 0,-1.865 -1.513,-3.379 -3.38,-3.379 -1.62,0 -2.973,1.14 -3.302,2.661 H 12.443 c -0.076,-1.378 -0.361,-2.7 -0.826,-3.935 L 27,-24.777 c 1.097,1.479 3.109,2.045 4.854,1.255 2.009,-0.909 2.9,-3.274 1.991,-5.283 -0.911,-2.011 -3.276,-2.902 -5.285,-1.993 -1.745,0.79 -2.646,2.674 -2.259,4.475 l -15.386,6.962 c -0.501,-0.94 -1.115,-1.814 -1.82,-2.601 l 8.673,-8.672 c 1.31,0.842 3.071,0.692 4.217,-0.454 1.32,-1.319 1.32,-3.458 0,-4.781 -1.32,-1.317 -3.46,-1.317 -4.779,0 -1.146,1.148 -1.298,2.909 -0.454,4.219 l -8.674,8.674 c -0.994,-0.896 -2.129,-1.641 -3.365,-2.199 l 5.956,-15.802 c 1.821,0.271 3.644,-0.751 4.321,-2.542 0.776,-2.064 -0.266,-4.367 -2.33,-5.146 -2.065,-0.777 -4.368,0.265 -5.146,2.329 -0.675,1.793 0.021,3.763 1.565,4.761 L 3.126,-25.774 C 2.129,-26.078 1.08,-26.267 0,-26.325 v -12.263 c 1.521,-0.33 2.661,-1.682 2.661,-3.305 0,-1.865 -1.515,-3.377 -3.382,-3.377 -1.865,0 -3.377,1.512 -3.377,3.377 0,1.623 1.14,2.975 2.661,3.305 v 12.263 c -1.377,0.075 -2.7,0.361 -3.934,0.825 l -6.961,-15.382 c 1.477,-1.098 2.043,-3.109 1.255,-4.854 -0.909,-2.009 -3.277,-2.9 -5.285,-1.991 -2.009,0.909 -2.901,3.276 -1.992,5.285 0.789,1.745 2.675,2.648 4.476,2.259 l 6.962,15.385 c -0.941,0.502 -1.816,1.115 -2.602,1.822 l -8.671,-8.674 c 0.842,-1.31 0.69,-3.071 -0.455,-4.219 -1.32,-1.317 -3.46,-1.317 -4.78,0 -1.319,1.323 -1.319,3.462 0,4.781 1.146,1.146 2.909,1.296 4.217,0.454 l 8.674,8.672 c -0.894,0.996 -1.639,2.13 -2.199,3.367 l -15.8,-5.956 c 0.269,-1.821 -0.752,-3.646 -2.544,-4.321 -2.065,-0.776 -4.367,0.266 -5.145,2.329 -0.778,2.065 0.266,4.368 2.328,5.147 1.791,0.675 3.763,-0.021 4.763,-1.566 l 15.801,5.954 c -0.304,0.997 -0.493,2.046 -0.553,3.127 h -12.262 c -0.331,-1.521 -1.683,-2.661 -3.304,-2.661 -1.867,0 -3.379,1.514 -3.379,3.379 0,1.867 1.512,3.38 3.379,3.38 1.621,0 2.973,-1.14 3.304,-2.661 h 12.262 c 0.074,1.378 0.361,2.699 0.825,3.933 l -15.38,6.962 c -1.098,-1.477 -3.111,-2.044 -4.854,-1.256 -2.011,0.909 -2.902,3.277 -1.993,5.285 0.909,2.009 3.276,2.901 5.287,1.992 1.741,-0.79 2.645,-2.675 2.259,-4.476 l 15.383,-6.961 c 0.501,0.941 1.115,1.815 1.822,2.602 l -8.674,8.671 c -1.308,-0.843 -3.071,-0.693 -4.217,0.455 -1.319,1.317 -1.319,3.459 0,4.779 1.32,1.32 3.46,1.32 4.78,0 1.145,-1.146 1.297,-2.909 0.455,-4.217 l 8.671,-8.673 c 0.997,0.893 2.129,1.638 3.366,2.198 l -5.956,15.8 c -1.819,-0.269 -3.644,0.752 -4.319,2.542 -0.778,2.067 0.266,4.369 2.328,5.148 2.064,0.775 4.367,-0.266 5.146,-2.329 0.675,-1.792 -0.021,-3.763 -1.567,-4.763 L -4.564,-0.553 C -3.566,-0.248 -2.52,-0.06 -1.437,0 v 12.263 c -1.521,0.33 -2.661,1.683 -2.661,3.303 0,1.868 1.512,3.38 3.377,3.38 1.867,0 3.382,-1.512 3.382,-3.38 0,-1.62 -1.14,-2.973 -2.661,-3.303 z"
             style="fill:#cc3300;fill-opacity:1;fill-rule:evenodd;stroke:none"
             id="path136859" />
        </g>
      </g>
    </g>
  </g>
</svg>
